HIERARCHY
ROOT Hips
{
	OFFSET 0.0000 0.0000 0.0000
	CHANNELS 6 Xposition Yposition Zposition Zrotation Xrotation Yrotation
	JOINT Spine1
	{
		OFFSET -0.0137 5.0038 -0.0537
		CHANNELS 3 Zrotation Xrotation Yrotation
		JOINT Spine2
		{
			OFFSET -0.0000 7.1253 -0.0298
			CHANNELS 3 Zrotation Xrotation Yrotation
			JOINT Chest
			{
				OFFSET -0.0000 7.5501 -0.8160
				CHANNELS 3 Zrotation Xrotation Yrotation
				JOINT Neck1
				{
					OFFSET -0.1817 26.3113 -0.5533
					CHANNELS 3 Zrotation Xrotation Yrotation
					JOINT Neck2
					{
						OFFSET -0.0000 7.7094 2.3026
						CHANNELS 3 Zrotation Xrotation Yrotation
						JOINT Head
						{
							OFFSET -0.0000 6.1289 1.9537
							CHANNELS 3 Zrotation Xrotation Yrotation
							JOINT Jaw
							{
								OFFSET 0.0026 0.4756 3.0949
								CHANNELS 3 Zrotation Xrotation Yrotation
								End Site
								{
									OFFSET 0.0 1.0 0.0
								}
							}
							JOINT LeftEye
							{
								OFFSET 3.2064 5.3802 7.5869
								CHANNELS 3 Zrotation Xrotation Yrotation
								End Site
								{
									OFFSET 0.0 1.0 0.0
								}
							}
							JOINT RightEye
							{
								OFFSET -3.2224 5.3619 7.5582
								CHANNELS 3 Zrotation Xrotation Yrotation
								End Site
								{
									OFFSET 0.0 1.0 0.0
								}
							}
						}
					}
				}
				JOINT LeftShoulder
				{
					OFFSET 1.6217 23.2372 5.1134
					CHANNELS 3 Zrotation Xrotation Yrotation
					JOINT LeftArm
					{
						OFFSET 14.9198 0.0000 -5.5023
						CHANNELS 3 Zrotation Xrotation Yrotation
						JOINT LeftForeArm
						{
							OFFSET 28.7393 0.0000 -0.0026
							CHANNELS 3 Zrotation Xrotation Yrotation
							JOINT LeftHand
							{
								OFFSET 27.0940 -0.0000 0.0026
								CHANNELS 3 Zrotation Xrotation Yrotation
								JOINT LeftHandThumbEnd
								{
									OFFSET 12.2686 -3.2202 4.8331
									CHANNELS 3 Zrotation Xrotation Yrotation
									End Site
									{
										OFFSET 0.0 1.0 0.0
									}
								}
								JOINT LeftHandMiddleEnd
								{
									OFFSET 19.0120 -0.3129 -0.0340
									CHANNELS 3 Zrotation Xrotation Yrotation
									End Site
									{
										OFFSET 0.0 1.0 0.0
									}
								}
							}
						}
					}
				}
				JOINT RightShoulder
				{
					OFFSET -1.3801 23.1803 5.2142
					CHANNELS 3 Zrotation Xrotation Yrotation
					JOINT RightArm
					{
						OFFSET -15.0372 0.0000 -5.5456
						CHANNELS 3 Zrotation Xrotation Yrotation
						JOINT RightForeArm
						{
							OFFSET -28.7366 0.0000 -0.0026
							CHANNELS 3 Zrotation Xrotation Yrotation
							JOINT RightHand
							{
								OFFSET -27.1336 -0.0000 0.0026
								CHANNELS 3 Zrotation Xrotation Yrotation
								JOINT RightHandThumbEnd
								{
									OFFSET -12.2642 -3.2115 4.8040
									CHANNELS 3 Zrotation Xrotation Yrotation
									End Site
									{
										OFFSET 0.0 1.0 0.0
									}
								}
								JOINT RightHandMiddleEnd
								{
									OFFSET -19.0006 -0.3066 -0.0316
									CHANNELS 3 Zrotation Xrotation Yrotation
									End Site
									{
										OFFSET 0.0 1.0 0.0
									}
								}
							}
						}
					}
				}
			}
		}
	}
	JOINT LeftLeg
	{
		OFFSET 10.0432 -8.4345 2.5957
		CHANNELS 3 Zrotation Xrotation Yrotation
		JOINT LeftShin
		{
			OFFSET -0.0000 -43.2218 -0.8029
			CHANNELS 3 Zrotation Xrotation Yrotation
			JOINT LeftFoot
			{
				OFFSET 0.0000 -42.1551 -3.4815
				CHANNELS 3 Zrotation Xrotation Yrotation
				JOINT LeftToeBase
				{
					OFFSET 0.0000 -5.0595 13.2315
					CHANNELS 3 Zrotation Xrotation Yrotation
					End Site
					{
						OFFSET 0.0 1.0 0.0
					}
				}
			}
		}
	}
	JOINT RightLeg
	{
		OFFSET -10.0473 -8.2953 2.6203
		CHANNELS 3 Zrotation Xrotation Yrotation
		JOINT RightShin
		{
			OFFSET 0.0000 -43.3622 -0.8056
			CHANNELS 3 Zrotation Xrotation Yrotation
			JOINT RightFoot
			{
				OFFSET 0.0000 -42.1174 -3.4784
				CHANNELS 3 Zrotation Xrotation Yrotation
				JOINT RightToeBase
				{
					OFFSET -0.0000 -5.0796 13.2842
					CHANNELS 3 Zrotation Xrotation Yrotation
					End Site
					{
						OFFSET 0.0 1.0 0.0
					}
				}
			}
		}
	}
}
MOTION
Frames: 8
Frame Time: 0.033333
0.8608 96.4244 -5.8064 -3.2305 -0.1012 0.5614 -0.7645 -1.0839 -0.3652 -0.5815 -5.3061 -1.4806 -0.4411 8.7509 -3.1810 6.7686 4.7295 0.9344 -0.6716 -3.6115 0.8347 0.0471 -11.2177 1.3568 -0.0144 0.0846 -0.1930 0.6000 -10.5558 -4.0360 -0.6244 -10.5485 3.6542 -7.2580 10.3873 -10.9502 -65.9332 1.3727 -7.0803 -0.3303 0.0602 -29.8594 1.5337 -14.7118 0.7326 -15.5814 10.9022 15.7880 -60.9624 1.6121 2.4262 12.8119 11.2978 9.3909 69.8726 2.1028 2.7363 -0.6508 0.0082 22.0521 -7.5143 -13.6381 -0.9132 15.4060 7.3470 -16.5615 49.4206 -3.6357 -4.8980 6.4438 20.3772 15.5731 0.0841 2.1528 -0.1848 -5.8079 -13.6578 -0.4405 1.7629 -6.3909 -1.9724 2.3666 -34.2746 -16.7069 0.1915 21.5686 0.2967 11.7059 -6.1957 1.2256 -1.4531 -5.8612 1.1137
0.5885 95.9201 -3.2508 -3.1705 0.5061 1.2569 -0.6993 -1.1069 -0.4614 -0.5797 -5.2589 -1.5158 -0.6580 8.6274 -3.3480 6.9118 4.2204 0.8119 -0.7393 -3.6284 0.7907 0.0367 -11.7313 1.1182 -0.0082 0.0503 -0.1252 0.6127 -10.5755 -3.9750 -0.6244 -10.5525 3.7259 -7.1970 10.6762 -11.2700 -65.5864 0.5908 -6.1393 -0.5954 -0.0128 -29.3942 1.5903 -15.1232 0.5667 -15.5209 10.8202 15.6228 -60.7553 1.6636 2.3783 12.9270 11.1867 9.0771 70.1062 2.4544 2.7083 -0.6507 0.0569 22.1469 -7.1230 -13.6791 -0.6743 15.4353 7.3910 -16.5022 49.6435 -3.6555 -4.8535 7.3637 21.2168 16.4489 0.0748 1.9793 -0.3688 -6.6503 -13.5391 -0.9733 1.7761 -7.1463 -1.9734 3.9734 -34.9224 -17.4373 0.1752 18.1931 0.2407 12.5945 -6.9217 1.1049 -1.3930 -5.9066 1.1117
0.2859 95.3189 -0.7133 -3.0017 1.2021 2.1482 -0.6502 -1.1837 -0.5458 -0.5951 -5.2578 -1.6030 -0.8602 8.6235 -3.4887 6.9820 3.4927 0.7757 -0.8286 -3.6452 0.5991 -0.0118 -12.2801 0.7736 -0.0023 0.0399 -0.0916 0.6227 -10.5955 -3.9475 -0.6221 -10.5524 3.7626 -7.2111 10.7784 -11.5824 -65.1719 0.1758 -5.6497 -0.7024 -0.1101 -29.0792 1.7001 -15.5684 0.5206 -15.4736 10.7603 15.5796 -60.6825 1.6174 2.4579 13.0660 11.1200 8.8698 70.3228 2.7594 2.7396 -0.6602 0.1020 22.2138 -6.6772 -14.2640 -0.3899 15.4405 7.3719 -16.4401 49.6806 -3.7397 -4.8893 8.4415 21.7809 17.3494 0.0542 2.2603 -0.5695 -7.5393 -13.2755 -1.9192 1.8034 -8.2423 -1.9589 5.1284 -35.8851 -17.5434 0.1610 17.5407 0.2383 12.7924 -7.9971 0.5463 -1.3486 -5.9591 1.1276
-0.0693 94.6949 2.1727 -2.8328 1.8929 3.1890 -0.5529 -1.3176 -0.5926 -0.6061 -5.3003 -1.7134 -0.9869 8.6857 -3.5655 6.9603 2.6715 0.7837 -0.9398 -3.6406 0.3003 -0.0937 -12.9070 0.4381 -0.0028 0.0458 -0.0867 0.6266 -10.6091 -3.9474 -0.6270 -10.5424 3.7708 -7.2303 10.7815 -11.8484 -64.8280 -0.0555 -5.4793 -0.7118 -0.2024 -28.7600 1.9516 -15.8609 0.3655 -15.4355 10.7310 15.5550 -60.6607 1.5677 2.5215 13.1256 11.0998 8.7545 70.6346 3.0509 2.8063 -0.7199 0.1381 22.0079 -6.1344 -14.9617 -0.1809 15.4218 7.3228 -16.3665 49.6657 -3.8074 -4.8387 9.6632 22.0716 18.0717 0.0297 3.1832 -0.7446 -8.3878 -12.7708 -3.0475 1.8445 -9.9327 -1.9805 5.5759 -36.7264 -16.5895 0.1547 18.9054 0.2477 11.7829 -9.0605 0.0447 -1.3367 -6.1435 1.1619
-0.4330 94.1257 5.3959 -2.8772 2.5821 4.3143 -0.2439 -1.5521 -0.5807 -0.5769 -5.4018 -1.8429 -0.9850 8.7834 -3.6196 6.7415 1.8735 0.8516 -1.0468 -3.6307 -0.0555 -0.1951 -13.6126 0.0863 -0.0096 0.0560 -0.0954 0.6253 -10.6089 -3.9590 -0.6390 -10.5284 3.7671 -7.3382 10.7008 -11.9994 -64.6099 -0.2000 -5.2922 -0.6795 -0.2241 -28.3464 2.4090 -16.0018 0.0431 -15.4053 10.7115 15.5130 -60.6581 1.5022 2.4765 13.1528 11.0878 8.7826 70.9011 3.3702 2.8979 -0.7272 0.1704 21.4091 -5.4692 -15.4417 -0.1697 15.4044 7.2631 -16.2792 49.6691 -3.8327 -4.7605 11.2086 22.0517 18.6191 0.0150 4.7739 -0.9379 -9.1071 -11.7777 -4.3332 1.9075 -12.3187 -2.0649 5.6732 -37.3886 -14.8026 0.1410 21.9111 0.2543 9.2821 -9.3965 0.0152 -1.3605 -6.4758 1.2071
-0.7556 93.7395 9.0054 -3.3193 3.2522 5.3957 0.3805 -1.9360 -0.5703 -0.5416 -5.5322 -1.7797 -0.7285 8.8038 -3.7340 6.2930 1.3803 0.9803 -1.1042 -3.6490 -0.4613 -0.3275 -14.2369 -0.3035 -0.0230 0.0484 -0.1183 0.6195 -10.6124 -3.9876 -0.6570 -10.5437 3.7537 -7.6977 10.4820 -11.9839 -64.4788 0.0426 -5.2843 -0.4098 -0.2233 -27.8943 2.8100 -16.4831 -0.3503 -15.3767 10.7368 15.4660 -60.6216 1.5055 2.3884 13.2649 10.9781 8.7684 70.8940 3.7187 2.7352 -0.6042 0.2092 20.4456 -4.7772 -15.2658 -0.4055 15.3454 7.2060 -16.1826 49.6570 -3.8867 -4.6839 13.2634 21.6412 19.1441 0.0185 7.1075 -1.1383 -9.3531 -10.1434 -6.0667 2.0233 -15.5306 -2.1911 5.7805 -37.8272 -12.4266 0.0966 25.6003 0.2473 5.3431 -7.8456 0.4597 -1.3966 -6.6998 1.2205
-1.1412 93.4961 12.9768 -3.9116 3.6191 6.3888 0.9675 -2.3192 -0.5617 -0.4216 -5.6406 -1.8515 -0.2993 8.7653 -3.7978 5.8471 1.1869 1.1070 -1.1677 -3.7039 -0.4259 -0.4517 -14.5057 -0.6694 -0.0280 0.0352 -0.1202 0.6286 -10.6291 -4.0001 -0.6750 -10.5662 3.7634 -8.1041 10.3503 -11.7465 -64.5068 0.6010 -5.3141 -0.1424 -0.1951 -27.6307 3.1584 -16.6127 -0.5424 -15.5144 10.7352 15.3961 -60.7433 1.5135 2.2473 13.5369 10.9924 9.0197 70.5951 4.0119 2.6283 -0.5049 0.1959 19.4490 -4.4086 -15.0837 -0.8160 15.3246 7.1900 -16.1192 49.7268 -3.9030 -4.6058 15.1631 21.1264 18.8329 -0.0272 10.1844 -1.2745 -9.4930 -6.8019 -6.8106 2.1731 -19.7947 -2.3819 5.9237 -37.6861 -10.4164 0.0489 29.0242 0.1935 2.1434 -5.4189 -0.0867 -1.4116 -5.9840 1.1792
-1.4647 93.5071 17.2580 -4.4723 3.4864 7.2659 1.4090 -2.4801 -0.5893 -0.3036 -5.7074 -2.0430 0.2681 8.6754 -3.7013 5.4301 1.3384 1.2378 -1.2384 -3.7690 -0.4774 -0.4814 -14.7220 -0.7314 -0.0385 0.0210 -0.1319 0.6267 -10.6305 -4.0107 -0.6929 -10.5596 3.7534 -8.0557 10.4693 -11.3991 -65.1698 1.2014 -5.5377 0.2337 -0.1052 -27.3534 3.2179 -17.1940 -0.5394 -15.6334 10.7434 15.3559 -60.8249 1.5242 2.1276 13.6625 11.1977 9.2805 70.3139 4.0670 2.4725 -0.4303 0.1896 18.7852 -4.3626 -15.0929 -1.3502 15.2799 7.2281 -16.1053 49.6194 -4.0500 -4.6285 16.5679 20.2543 17.7099 -0.0379 14.9604 -1.4355 -9.3111 -2.0264 -6.6686 2.3447 -24.7969 -2.5473 6.2091 -36.2380 -9.2883 -0.0428 31.5749 0.1464 0.9795 -4.4155 -0.9469 -1.3864 -4.8149 1.0933
